<svg width="39" height="27" fill="none" xmlns="http://www.w3.org/2000/svg"><g clip-path="url(#a)" fill-rule="evenodd" clip-rule="evenodd"><path d="M0 17.9C0 22.925 8.205 27 18.323 27s18.323-4.074 18.323-9.1v-3.978H0v3.977Z" fill="url(#b)"/><path style="mix-blend-mode:screen" opacity=".5" d="M15.934 22.954c.785.048 1.577.075 2.389.075 1.666 0 3.276-.11 4.811-.315v3.97c-1.535.206-2.216.316-4.811.316-2.595 0-6.814-.494-9.602-1.351v-3.97c2.147.658 4.598 1.103 7.213 1.275Z" fill="url(#c)"/><path style="mix-blend-mode:multiply" opacity=".5" d="M30.809 20.588c3.559-1.653 5.796-3.998 5.837-6.611v3.922c0 2.627-2.244 5-5.837 6.66V20.58v.007Z" fill="url(#d)"/><path style="mix-blend-mode:multiply" opacity=".5" d="M3.765 19.442v3.978C1.405 21.898 0 19.977 0 17.9v-3.978c.014 2.078 1.411 3.991 3.765 5.52Z" fill="url(#e)"/><path style="mix-blend-mode:screen" d="M15.934 22.954c.785.048 1.577.075 2.389.075V27c-2.774 0-5.403-.309-7.757-.85v-3.971c1.665.39 3.469.658 5.368.782v-.007Z" fill="url(#f)"/><path opacity=".65" d="M20.952 25.039c0 .5-.041.967-.11 1.364a.095.095 0 0 1-.09.076.095.095 0 0 1-.089-.076 8.124 8.124 0 0 1-.11-1.364c0-.501.041-.967.11-1.365a.095.095 0 0 1 .09-.076c.041 0 .082.035.09.076.068.398.11.864.11 1.365Zm2.41-.24c0 .5-.035.967-.104 1.364a.09.09 0 0 1-.09.076.09.09 0 0 1-.089-.076 8.973 8.973 0 0 1-.103-1.364c0-.501.034-.967.103-1.365a.09.09 0 0 1 .09-.076.09.09 0 0 1 .09.076c.061.398.102.864.102 1.365Zm2.388-.419c0 .5-.035.967-.096 1.365 0 .041-.042.075-.083.075s-.076-.034-.083-.075a9.031 9.031 0 0 1-.096-1.365c0-.5.034-.967.096-1.364 0-.042.042-.076.083-.076s.076.034.082.075c.063.398.097.865.097 1.365Zm2.347-.61c0 .5-.034.967-.096 1.365 0 .04-.042.075-.076.075-.034 0-.076-.034-.076-.075a9.016 9.016 0 0 1-.096-1.365c0-.5.034-.967.096-1.365 0-.041.042-.075.076-.075.034 0 .076.034.076.075.062.398.096.864.096 1.365Zm2.278-.83c0 .5-.034.967-.09 1.365a.076.076 0 0 1-.075.075c-.041 0-.069-.034-.076-.075-.055-.398-.089-.864-.089-1.365 0-.5.034-.967.09-1.365 0-.04.034-.075.075-.075.041 0 .069.034.076.075.055.398.09.864.09 1.365Zm2.162-1.09c0 .5-.028.967-.083 1.364 0 .042-.034.076-.069.076-.034 0-.062-.034-.069-.076a10.178 10.178 0 0 1-.082-1.364c0-.501.027-.967.082-1.365 0-.041.035-.076.07-.076.034 0 .061.035.068.076.055.398.083.864.083 1.365Zm1.955-1.427c0 .5-.028.967-.083 1.365 0 .041-.035.075-.069.075s-.062-.034-.069-.075a11.446 11.446 0 0 1 0-2.73c0-.04.035-.075.07-.075.033 0 .061.034.068.075.048.398.083.864.083 1.365ZM15.687 25.04c0 .5.041.967.11 1.364a.095.095 0 0 0 .09.076.095.095 0 0 0 .089-.076c.069-.397.11-.864.11-1.364 0-.501-.041-.967-.11-1.365a.095.095 0 0 0-.09-.076.095.095 0 0 0-.09.076 8.11 8.11 0 0 0-.11 1.365Zm-2.41-.24c0 .5.035.967.104 1.364a.09.09 0 0 0 .09.076.09.09 0 0 0 .089-.076 8.96 8.96 0 0 0 .103-1.364c0-.501-.034-.967-.103-1.365a.09.09 0 0 0-.09-.076.09.09 0 0 0-.09.076 8.96 8.96 0 0 0-.102 1.365Zm-2.388-.419c0 .5.035.967.097 1.365 0 .041.04.075.082.075.041 0 .076-.034.083-.075.062-.398.096-.864.096-1.365 0-.5-.034-.967-.096-1.364 0-.042-.042-.076-.083-.076s-.076.034-.082.075a9.031 9.031 0 0 0-.097 1.365Zm-2.347-.61c0 .5.034.967.096 1.365 0 .04.042.075.076.075.034 0 .076-.034.076-.075.062-.398.096-.865.096-1.365s-.034-.967-.096-1.365c0-.041-.042-.075-.076-.075-.034 0-.076.034-.076.075a9.026 9.026 0 0 0-.096 1.365Zm-2.278-.83c0 .5.034.967.09 1.365 0 .04.034.075.075.075.041 0 .069-.034.076-.075.055-.398.09-.864.09-1.365 0-.5-.035-.967-.09-1.365a.076.076 0 0 0-.076-.075c-.041 0-.069.034-.076.075-.055.398-.09.864-.09 1.365Zm-2.162-1.09c0 .5.028.967.083 1.364 0 .042.034.076.069.076.034 0 .062-.034.069-.076.055-.397.082-.864.082-1.364 0-.501-.027-.967-.082-1.365 0-.041-.035-.076-.07-.076-.034 0-.068.035-.068.076-.055.398-.083.864-.083 1.365Zm-1.954-1.427c0 .5.027.967.082 1.365 0 .041.035.075.069.075s.062-.034.069-.075a11.45 11.45 0 0 0 0-2.73c0-.04-.035-.075-.069-.075s-.062.034-.069.075a11.45 11.45 0 0 0-.082 1.365Zm15.968 4.698c0 .5.042.967.11 1.365.008.04.049.075.097.075s.09-.034.096-.075a8.11 8.11 0 0 0 .11-1.365c0-.5-.04-.967-.11-1.365-.006-.041-.048-.075-.096-.075s-.09.034-.096.075c-.07.398-.11.864-.11 1.365ZM.606 18.57c0 .501.027.967.075 1.365 0 .041.035.076.062.076.028 0 .055-.035.062-.076.049-.398.076-.864.076-1.364 0-.501-.027-.967-.076-1.365 0-.041-.034-.076-.062-.076-.027 0-.055.035-.062.076-.048.398-.075.864-.075 1.364Zm35.441 0c0 .501-.027.967-.076 1.365 0 .041-.034.076-.061.076-.028 0-.056-.035-.063-.076a11.544 11.544 0 0 1-.075-1.364c0-.501.027-.967.075-1.365 0-.041.035-.076.063-.076.027 0 .055.035.061.076.049.398.076.864.076 1.364Z" fill="#663D1F"/><path d="M.151 14.127c0 5.103 8.074 9.238 18.027 9.238 9.953 0 18.027-4.135 18.027-9.237 0-5.103-8.067-9.238-18.027-9.238S.151 9.025.151 14.128Z" fill="#FFEE76"/><path d="M0 13.901c0 5.048 8.205 9.135 18.323 9.135s18.323-4.087 18.323-9.135c0-5.047-8.205-9.135-18.323-9.135S0 8.854 0 13.901Z" fill="url(#g)"/><path d="M1.728 13.47c-.117 4.505 7.213 8.345 16.382 8.585 9.161.24 16.691-3.216 16.808-7.722.117-4.505-7.213-8.346-16.382-8.586-9.161-.24-16.691 3.216-16.808 7.722Z" fill="#FFEE76"/><path d="M1.845 13.901c0 4.54 7.378 8.216 16.478 8.216 9.1 0 16.478-3.676 16.478-8.216 0-4.54-7.379-8.216-16.478-8.216-9.1 0-16.478 3.676-16.478 8.216Z" fill="url(#h)"/><path d="M34.774 14.409c-.523-4.3-7.689-7.709-16.451-7.709S2.403 10.11 1.879 14.41a4.105 4.105 0 0 1-.027-.508c0-4.54 7.378-8.216 16.478-8.216 9.1 0 16.478 3.676 16.478 8.216 0 .172-.014.336-.027.508h-.007Z" fill="url(#i)"/><path style="mix-blend-mode:multiply" d="M1.948 13.757c0 4.485 7.296 8.12 16.292 8.12 8.997 0 16.293-3.635 16.293-8.12 0-4.485-7.296-8.12-16.293-8.12-8.996 0-16.292 3.635-16.292 8.12Z" fill="url(#j)"/><path d="M2.347 13.14c0 5.027 8.205 9.1 18.323 9.1s18.323-4.073 18.323-9.1V9.162H2.347v3.978Z" fill="url(#k)"/><path style="mix-blend-mode:screen" opacity=".5" d="M18.289 18.194c.784.048 1.576.076 2.388.076 1.666 0 3.276-.11 4.811-.316v3.971c-1.535.206-2.216.316-4.811.316-2.595 0-6.814-.494-9.602-1.351v-3.971c2.148.658 4.598 1.104 7.214 1.275Z" fill="url(#l)"/><path style="mix-blend-mode:multiply" opacity=".5" d="M33.163 15.822C36.722 14.168 38.96 11.822 39 9.21v3.923c0 2.627-2.244 5-5.837 6.66v-3.978.007Z" fill="url(#m)"/><path style="mix-blend-mode:multiply" opacity=".5" d="M6.112 14.683v3.978c-2.36-1.53-3.765-3.45-3.765-5.528V9.155c.014 2.078 1.411 3.992 3.765 5.521v.007Z" fill="url(#n)"/><path style="mix-blend-mode:screen" d="M18.288 18.194c.785.048 1.577.076 2.389.076v3.97c-2.774 0-5.403-.308-7.757-.85v-3.97c1.665.39 3.469.658 5.368.781v-.007Z" fill="url(#o)"/><path opacity=".65" d="M23.306 20.272c0 .5-.04.967-.11 1.365a.095.095 0 0 1-.09.075.095.095 0 0 1-.089-.075 8.122 8.122 0 0 1-.11-1.365c0-.5.041-.967.11-1.364a.095.095 0 0 1 .09-.076c.041 0 .082.034.09.075.068.398.11.865.11 1.365Zm2.41-.24c0 .5-.035.967-.104 1.365a.09.09 0 0 1-.09.075.09.09 0 0 1-.089-.075 8.96 8.96 0 0 1-.103-1.365c0-.5.035-.967.103-1.364a.09.09 0 0 1 .09-.076.09.09 0 0 1 .09.076c.061.397.102.864.102 1.364Zm2.388-.418c0 .5-.034.967-.096 1.365-.007.04-.042.075-.083.075s-.076-.034-.083-.075a9.019 9.019 0 0 1-.096-1.365c0-.5.034-.967.096-1.365 0-.041.042-.075.083-.075s.076.034.083.075c.062.398.096.864.096 1.365Zm2.347-.61c0 .5-.034.966-.096 1.364 0 .041-.041.076-.076.076-.034 0-.076-.035-.076-.076a9.031 9.031 0 0 1-.096-1.364c0-.501.034-.967.096-1.365 0-.041.042-.076.076-.076.035 0 .076.035.076.076.062.398.096.864.096 1.364Zm2.278-.83c0 .5-.034.967-.089 1.364a.076.076 0 0 1-.076.076c-.041 0-.069-.034-.075-.076-.055-.397-.09-.864-.09-1.364 0-.5.035-.967.09-1.365 0-.041.034-.076.075-.076.041 0 .07.035.076.076.055.398.09.864.09 1.365Zm2.162-1.09c0 .5-.028.966-.083 1.364 0 .041-.034.075-.069.075-.034 0-.062-.034-.069-.075a10.16 10.16 0 0 1-.082-1.365c0-.5.027-.967.082-1.364 0-.042.035-.076.07-.076.034 0 .068.034.068.076.055.397.083.864.083 1.364Zm1.955-1.427c0 .5-.028.967-.083 1.365 0 .04-.034.075-.069.075-.034 0-.062-.034-.069-.075a11.446 11.446 0 0 1 0-2.73c0-.041.035-.075.07-.075.034 0 .061.034.068.075.048.398.083.864.083 1.365ZM18.04 20.272c0 .5.041.967.11 1.365a.095.095 0 0 0 .09.075.095.095 0 0 0 .089-.075c.069-.398.11-.864.11-1.365 0-.5-.041-.967-.11-1.364a.095.095 0 0 0-.09-.076.095.095 0 0 0-.09.075c-.068.398-.11.865-.11 1.365Zm-2.41-.24c0 .5.035.967.104 1.365a.09.09 0 0 0 .09.075.09.09 0 0 0 .089-.075c.062-.398.103-.864.103-1.365 0-.5-.034-.967-.103-1.364a.09.09 0 0 0-.09-.076.09.09 0 0 0-.09.076 8.974 8.974 0 0 0-.102 1.364Zm-2.388-.418c0 .5.035.967.097 1.365 0 .04.04.075.082.075.041 0 .076-.034.083-.075.062-.398.096-.864.096-1.365 0-.5-.034-.967-.096-1.365-.007-.041-.042-.075-.083-.075s-.075.034-.082.075a9.016 9.016 0 0 0-.097 1.365Zm-2.347-.61c0 .5.034.966.096 1.364 0 .041.042.076.076.076.034 0 .076-.035.076-.076.062-.397.096-.864.096-1.364 0-.501-.034-.967-.096-1.365 0-.041-.042-.076-.076-.076-.034 0-.076.035-.076.076a9.03 9.03 0 0 0-.096 1.364Zm-2.278-.83c0 .5.034.967.09 1.364 0 .042.034.076.075.076.041 0 .069-.034.076-.076.055-.397.09-.864.09-1.364 0-.5-.035-.967-.09-1.365a.076.076 0 0 0-.076-.076c-.041 0-.069.035-.076.076-.055.398-.09.864-.09 1.365Zm-2.162-1.09c0 .5.028.966.083 1.364 0 .041.034.075.069.075.034 0 .069-.034.069-.075.055-.398.082-.864.082-1.365 0-.5-.027-.967-.082-1.364 0-.042-.035-.076-.07-.076-.034 0-.068.034-.068.076-.055.397-.083.864-.083 1.364Zm-1.954-1.427c0 .5.027.967.082 1.365 0 .04.035.075.069.075s.062-.034.069-.075a11.448 11.448 0 0 0 0-2.73c0-.041-.035-.075-.069-.075s-.062.034-.069.075a11.45 11.45 0 0 0-.082 1.365Zm15.969 4.698c0 .5.04.967.11 1.364.006.041.048.076.096.076s.09-.035.096-.076c.07-.397.11-.864.11-1.364 0-.501-.04-.967-.11-1.365-.006-.041-.048-.076-.096-.076s-.09.035-.096.076c-.07.398-.11.864-.11 1.365Zm-17.518-6.55c0 .5.027.967.076 1.365 0 .041.034.075.062.075.027 0 .055-.034.061-.075.049-.398.076-.864.076-1.365 0-.5-.027-.967-.076-1.365 0-.04-.034-.075-.061-.075-.028 0-.056.034-.062.075-.049.398-.076.865-.076 1.365Zm35.441 0c0 .5-.027.967-.075 1.365 0 .041-.035.075-.062.075-.028 0-.055-.034-.062-.075a11.544 11.544 0 0 1-.076-1.365c0-.5.028-.967.076-1.365 0-.04.034-.075.062-.075.027 0 .055.034.062.075.048.398.075.865.075 1.365Z" fill="#663D1F"/><path d="M2.499 9.361c0 5.103 8.073 9.238 18.027 9.238 9.953 0 18.027-4.135 18.027-9.238 0-5.102-8.06-9.23-18.02-9.23-9.96 0-18.034 4.135-18.034 9.23Z" fill="#FFEE76"/><path d="M2.347 9.135c0 5.047 8.205 9.135 18.323 9.135s18.323-4.088 18.323-9.135C38.993 4.087 30.795 0 20.677 0 10.559 0 2.347 4.087 2.347 9.135Z" fill="url(#p)"/><path d="M4.082 8.703c-.117 4.506 7.213 8.346 16.382 8.586 9.161.24 16.691-3.216 16.808-7.722C37.39 5.06 30.06 1.22 20.89.98 11.722.74 4.2 4.197 4.082 8.703Z" fill="#FFEE76"/><path d="M4.199 9.135c0 4.54 7.379 8.216 16.478 8.216 9.1 0 16.478-3.676 16.478-8.216 0-4.54-7.378-8.216-16.478-8.216-9.1 0-16.478 3.676-16.478 8.216Z" fill="url(#q)"/><path d="M37.12 9.642c-.522-4.3-7.688-7.708-16.45-7.708S4.75 5.342 4.226 9.642a4.105 4.105 0 0 1-.027-.507c0-4.54 7.372-8.216 16.478-8.216 9.106 0 16.478 3.676 16.478 8.216 0 .171-.014.336-.027.507h-.007Z" fill="url(#r)"/><path style="mix-blend-mode:screen" d="M20.677 1.934c-8.432 0-15.384 3.155-16.361 7.228a3.919 3.919 0 0 0-.09.48c.028.247.083.494.159.734.185.617.509 1.207.956 1.77l.145-.021 20.443-2.963 10.448-1.515c-2.126-3.313-8.349-5.713-15.7-5.713Z" fill="url(#s)"/><path style="mix-blend-mode:screen" d="M4.082 8.703c.103-4.012 6.078-7.187 13.855-7.667.889-.076 1.804-.11 2.74-.11C28.93.926 35.765 3.95 36.969 7.9c.042.11.083.22.117.33l1.77-.254C37.698 3.477 30.003 0 20.677 0 10.552 0 2.347 4.087 2.347 9.135v.027c.007 1.379.627 2.682 1.728 3.848l1.796-.261a8.627 8.627 0 0 1-.537-.604 5.567 5.567 0 0 1-.956-1.769 4.219 4.219 0 0 1-.303-1.673h.007Z" fill="url(#t)"/></g><defs><linearGradient id="b" x1="0" y1="20.464" x2="36.646" y2="20.464" gradientUnits="userSpaceOnUse"><stop stop-color="#B38746"/><stop offset=".39" stop-color="#D9973B"/><stop offset=".75" stop-color="#AD6C10"/><stop offset=".86" stop-color="#D3953D"/><stop offset="1" stop-color="#B07F35"/></linearGradient><linearGradient id="c" x1="8.721" y1="24.339" x2="23.134" y2="24.339" gradientUnits="userSpaceOnUse"><stop stop-color="#FFEE76"/><stop offset="1" stop-color="#1D1D1B"/></linearGradient><linearGradient id="d" x1="30.809" y1="19.271" x2="36.646" y2="19.271" gradientUnits="userSpaceOnUse"><stop stop-color="#fff"/><stop offset="1" stop-color="#663D1F"/></linearGradient><linearGradient id="e" x1="0" y1="18.674" x2="3.765" y2="18.674" gradientUnits="userSpaceOnUse"><stop stop-color="#663D1F"/><stop offset="1" stop-color="#fff"/></linearGradient><linearGradient id="f" x1="10.566" y1="24.593" x2="18.323" y2="24.593" gradientUnits="userSpaceOnUse"><stop stop-color="#FFEE76"/><stop offset="1" stop-color="#1D1D1B"/></linearGradient><linearGradient id="g" x1="0" y1="13.901" x2="36.646" y2="13.901" gradientUnits="userSpaceOnUse"><stop stop-color="#FFE878"/><stop offset="1" stop-color="#E6A729"/></linearGradient><linearGradient id="h" x1="1.845" y1="13.901" x2="34.801" y2="13.901" gradientUnits="userSpaceOnUse"><stop stop-color="#F0CC62"/><stop offset="1" stop-color="#ED9E1F"/></linearGradient><linearGradient id="i" x1="1.845" y1="10.047" x2="34.801" y2="10.047" gradientUnits="userSpaceOnUse"><stop stop-color="#B38746"/><stop offset=".39" stop-color="#D9973B"/><stop offset=".75" stop-color="#AD6C10"/><stop offset=".86" stop-color="#D3953D"/><stop offset="1" stop-color="#B07F35"/></linearGradient><linearGradient id="j" x1="1.948" y1="13.757" x2="34.533" y2="13.757" gradientUnits="userSpaceOnUse"><stop stop-color="#E0C0A8"/><stop offset="1" stop-color="#663D1F"/></linearGradient><linearGradient id="k" x1="2.347" y1="15.698" x2="39" y2="15.698" gradientUnits="userSpaceOnUse"><stop stop-color="#B38746"/><stop offset=".39" stop-color="#D9973B"/><stop offset=".75" stop-color="#AD6C10"/><stop offset=".86" stop-color="#D3953D"/><stop offset="1" stop-color="#B07F35"/></linearGradient><linearGradient id="l" x1="11.068" y1="19.58" x2="25.482" y2="19.58" gradientUnits="userSpaceOnUse"><stop stop-color="#FFEE76"/><stop offset="1" stop-color="#1D1D1B"/></linearGradient><linearGradient id="m" x1="33.163" y1="14.505" x2="39" y2="14.505" gradientUnits="userSpaceOnUse"><stop stop-color="#fff"/><stop offset="1" stop-color="#663D1F"/></linearGradient><linearGradient id="n" x1="2.347" y1="13.908" x2="6.112" y2="13.908" gradientUnits="userSpaceOnUse"><stop stop-color="#663D1F"/><stop offset="1" stop-color="#fff"/></linearGradient><linearGradient id="o" x1="12.92" y1="19.826" x2="20.677" y2="19.826" gradientUnits="userSpaceOnUse"><stop stop-color="#FFEE76"/><stop offset="1" stop-color="#1D1D1B"/></linearGradient><linearGradient id="p" x1="2.347" y1="9.135" x2="39" y2="9.135" gradientUnits="userSpaceOnUse"><stop stop-color="#FFE878"/><stop offset="1" stop-color="#E6A729"/></linearGradient><linearGradient id="q" x1="4.199" y1="9.135" x2="37.155" y2="9.135" gradientUnits="userSpaceOnUse"><stop stop-color="#F0CC62"/><stop offset="1" stop-color="#ED9E1F"/></linearGradient><linearGradient id="r" x1="4.199" y1="5.281" x2="37.155" y2="5.281" gradientUnits="userSpaceOnUse"><stop stop-color="#B38746"/><stop offset=".39" stop-color="#D9973B"/><stop offset=".75" stop-color="#AD6C10"/><stop offset=".86" stop-color="#D3953D"/><stop offset="1" stop-color="#B07F35"/></linearGradient><linearGradient id="s" x1="4.226" y1="7.036" x2="36.371" y2="7.036" gradientUnits="userSpaceOnUse"><stop stop-color="#FFEE76"/><stop offset="1" stop-color="#1D1D1B"/></linearGradient><linearGradient id="t" x1="2.347" y1="6.501" x2="38.849" y2="6.501" gradientUnits="userSpaceOnUse"><stop stop-color="#FFEE76"/><stop offset="1" stop-color="#1D1D1B"/></linearGradient><clipPath id="a"><path fill="#fff" d="M0 0h39v27H0z"/></clipPath></defs></svg>