<svg width="48" height="50" fill="none" xmlns="http://www.w3.org/2000/svg"><path d="m25.349 1.156 6.148 12.556 13.748 2.013c1.684.248 2.36 2.334 1.138 3.532l-9.948 9.773 2.349 13.799c.29 1.692-1.473 2.98-2.98 2.182l-12.296-6.518-12.297 6.518c-1.507.798-3.27-.49-2.98-2.182l2.35-13.8-9.948-9.772C-.59 18.059.086 15.973 1.77 15.725l13.747-2.013 6.148-12.556c.754-1.54 2.93-1.54 3.683 0Z" fill="url(#a)"/><path d="M36.758 43.639a.428.428 0 0 1-.212-.057l-13.038-6.91-13.04 6.91a.444.444 0 0 1-.211.057.486.486 0 0 1-.357-.175.43.43 0 0 1-.095-.365l2.488-14.632L1.748 18.104a.443.443 0 0 1-.117-.472.438.438 0 0 1 .368-.315l14.58-2.137 6.516-13.31a.434.434 0 0 1 .413-.259c.134 0 .306.045.413.259l6.516 13.31 14.579 2.137a.43.43 0 0 1 .368.315c.04.123.05.309-.117.472l-10.55 10.363L37.204 43.1a.42.42 0 0 1-.095.365.486.486 0 0 1-.357.175h.005Z" fill="url(#b)"/><path d="M10.58 29.03.633 19.257a2.054 2.054 0 0 1-.609-1.682H.008c-.017.012 0 3.751 0 3.751h.016a2.043 2.043 0 0 0 .609 1.676l9.4 9.233.547-3.217v.012Z" fill="url(#c)"/><path d="M38.8 43.397c-.139 1.389-1.668 2.317-2.996 1.614l-12.296-6.518-12.297 6.518c-1.317.697-2.829-.203-2.996-1.57v3.307c-.15 1.608 1.54 2.79 2.996 2.013l12.007-6.365.357-.113 12.224 6.478c1.456.77 3.141-.405 2.996-2.013v-3.351h.005Z" fill="url(#d)"/><path d="M46.985 17.575a2.037 2.037 0 0 1-.608 1.682L36.43 29.03l.547 3.216 9.401-9.233c.48-.472.664-1.085.608-1.665l.011-.01v-3.751h-.016l.005-.012Z" fill="url(#e)"/><path style="mix-blend-mode:screen" d="M45.384 17.632a.438.438 0 0 0-.368-.315L30.437 15.18 23.915 1.87a.434.434 0 0 0-.413-.259.434.434 0 0 0-.413.259l-6.516 13.31-14.574 2.137a.43.43 0 0 0-.368.315c-.039.123-.05.309.117.472l3.448 3.385c5.675-2.688 13.273-3.11 20.85-.607 4.045 1.338 7.61 3.351 10.506 5.786l8.715-8.564a.443.443 0 0 0 .117-.472Z" fill="url(#f)"/><path d="M45.267 18.104a.443.443 0 0 0 .117-.472.438.438 0 0 0-.368-.315L30.437 15.18 23.915 1.87a.434.434 0 0 0-.413-.259.434.434 0 0 0-.413.259l-6.516 13.31-14.574 2.137a.43.43 0 0 0-.368.315c-.039.123-.05.309.117.472l10.55 10.363L9.81 43.1a.42.42 0 0 0 .095.365c.09.107.23.175.357.175.073 0 .14-.017.212-.057l13.04-6.91 13.038 6.91c.073.04.145.057.212.057a.486.486 0 0 0 .357-.175.43.43 0 0 0 .095-.365l-2.488-14.632 10.55-10.363h-.011Zm-8.458 25.102s-.045.033-.05.033l-13.251-7.017-13.251 7.017s-.034-.01-.056-.073l2.527-14.84L2.022 17.818s-.028-.028-.017-.062.017-.034.05-.04l14.785-2.164 6.612-13.507c.017-.028.017-.033.05-.033.034 0 .04 0 .05.033l6.612 13.501 14.785 2.165c.033 0 .033 0 .05.04.011.033.006.039-.017.061l-10.695 10.51L36.809 43.2v.006Z" fill="url(#g)"/><defs><linearGradient id="a" x1="20.467" y1="1.892" x2="29.02" y2="45.93" gradientUnits="userSpaceOnUse"><stop stop-color="#FDD733"/><stop offset="1" stop-color="#F9AB21"/></linearGradient><linearGradient id="b" x1="22.342" y1="5.666" x2="25.849" y2="41.581" gradientUnits="userSpaceOnUse"><stop stop-color="#FDE265"/><stop offset="1" stop-color="#FDD733"/></linearGradient><linearGradient id="c" x1="5.358" y1="13.431" x2="5.154" y2="44.06" gradientUnits="userSpaceOnUse"><stop stop-color="#EA8D07"/><stop offset="1" stop-color="#B26500"/></linearGradient><linearGradient id="d" x1="23.714" y1="13.555" x2="23.516" y2="44.184" gradientUnits="userSpaceOnUse"><stop stop-color="#EA8D07"/><stop offset="1" stop-color="#B26500"/></linearGradient><linearGradient id="e" x1="41.791" y1="13.673" x2="41.587" y2="44.302" gradientUnits="userSpaceOnUse"><stop stop-color="#EA8D07"/><stop offset="1" stop-color="#B26500"/></linearGradient><linearGradient id="g" x1="23.257" y1="2.443" x2="23.931" y2="43.599" gradientUnits="userSpaceOnUse"><stop stop-color="#FDD733"/><stop offset="1" stop-color="#FBC12A"/></linearGradient><radialGradient id="f" cx="0" cy="0" r="1" gradientUnits="userSpaceOnUse" gradientTransform="matrix(24.9699 0 0 25.1661 26.542 32.244)"><stop stop-color="#FCED97"/><stop offset="1"/></radialGradient></defs></svg>