<svg width="39" height="27" viewBox="0 0 39 27" fill="none" xmlns="http://www.w3.org/2000/svg">
<g clip-path="url(#clip0_13_99)">
<path fill-rule="evenodd" clip-rule="evenodd" d="M0 17.8994C0 22.9264 8.20473 27 18.323 27C28.4412 27 36.646 22.9264 36.646 17.8994V13.9218H0V17.8994Z" fill="url(#paint0_linear_13_99)"/>
<path style="mix-blend-mode:screen" opacity="0.5" fill-rule="evenodd" clip-rule="evenodd" d="M15.9345 22.9538C16.7192 23.0018 17.5107 23.0292 18.323 23.0292C19.9887 23.0292 21.5993 22.9195 23.1343 22.7138V26.6845C21.5993 26.8903 20.9179 27 18.323 27C15.728 27 11.5086 26.5062 8.72095 25.649V21.6782C10.8685 22.3366 13.3189 22.7823 15.9345 22.9538Z" fill="url(#paint1_linear_13_99)"/>
<path style="mix-blend-mode:multiply" opacity="0.5" fill-rule="evenodd" clip-rule="evenodd" d="M30.809 20.5877C34.3676 18.935 36.6046 16.5895 36.6459 13.9766V17.8994C36.6459 20.526 34.402 22.8989 30.809 24.5585V20.5809V20.5877Z" fill="url(#paint2_linear_13_99)"/>
<path style="mix-blend-mode:multiply" opacity="0.5" fill-rule="evenodd" clip-rule="evenodd" d="M3.76509 19.4425V23.4201C1.40417 21.8977 0 19.9774 0 17.8994V13.9218C0.0137663 15.9998 1.41105 17.9131 3.76509 19.4425Z" fill="url(#paint3_linear_13_99)"/>
<path style="mix-blend-mode:screen" fill-rule="evenodd" clip-rule="evenodd" d="M15.9345 22.9538C16.7192 23.0018 17.5108 23.0292 18.323 23.0292V27C15.5491 27 12.9197 26.6914 10.5657 26.1496V22.1788C12.2314 22.5697 14.0348 22.8372 15.9345 22.9606V22.9538Z" fill="url(#paint4_linear_13_99)"/>
<path opacity="0.65" fill-rule="evenodd" clip-rule="evenodd" d="M20.9523 25.0386C20.9523 25.5392 20.911 26.0056 20.8422 26.4034C20.8353 26.4445 20.794 26.4788 20.7527 26.4788C20.7114 26.4788 20.6701 26.4445 20.6632 26.4034C20.5944 26.0056 20.5531 25.5392 20.5531 25.0386C20.5531 24.538 20.5944 24.0716 20.6632 23.6739C20.6701 23.6327 20.7114 23.5984 20.7527 23.5984C20.794 23.5984 20.8353 23.6327 20.8422 23.6739C20.911 24.0716 20.9523 24.538 20.9523 25.0386ZM23.3614 24.7986C23.3614 25.2992 23.327 25.7656 23.2582 26.1633C23.2513 26.2045 23.2169 26.2388 23.1687 26.2388C23.1205 26.2388 23.0861 26.2045 23.0792 26.1633C23.0173 25.7656 22.976 25.2992 22.976 24.7986C22.976 24.2979 23.0104 23.8316 23.0792 23.4338C23.0861 23.3927 23.1205 23.3584 23.1687 23.3584C23.2169 23.3584 23.2513 23.3927 23.2582 23.4338C23.3201 23.8316 23.3614 24.2979 23.3614 24.7986ZM25.7499 24.3802C25.7499 24.8809 25.7155 25.3472 25.6535 25.745C25.6535 25.7861 25.6122 25.8204 25.5709 25.8204C25.5296 25.8204 25.4952 25.7861 25.4883 25.745C25.4264 25.3472 25.392 24.8809 25.392 24.3802C25.392 23.8796 25.4264 23.4133 25.4883 23.0155C25.4883 22.9743 25.5296 22.9401 25.5709 22.9401C25.6122 22.9401 25.6467 22.9743 25.6535 23.0155C25.7155 23.4133 25.7499 23.8796 25.7499 24.3802ZM28.0971 23.7699C28.0971 24.2705 28.0626 24.7369 28.0007 25.1346C28.0007 25.1758 27.9594 25.2101 27.925 25.2101C27.8906 25.2101 27.8493 25.1758 27.8493 25.1346C27.7873 24.7369 27.7529 24.2705 27.7529 23.7699C27.7529 23.2692 27.7873 22.8029 27.8493 22.4051C27.8493 22.364 27.8906 22.3297 27.925 22.3297C27.9594 22.3297 28.0007 22.364 28.0007 22.4051C28.0626 22.8029 28.0971 23.2692 28.0971 23.7699ZM30.3754 22.9401C30.3754 23.4407 30.341 23.907 30.2859 24.3048C30.2859 24.3459 30.2515 24.3802 30.2102 24.3802C30.1689 24.3802 30.1414 24.3459 30.1345 24.3048C30.0794 23.907 30.045 23.4407 30.045 22.9401C30.045 22.4394 30.0794 21.9731 30.1345 21.5753C30.1345 21.5342 30.1689 21.4999 30.2102 21.4999C30.2515 21.4999 30.279 21.5342 30.2859 21.5753C30.341 21.9731 30.3754 22.4394 30.3754 22.9401ZM32.5367 21.8496C32.5367 22.3503 32.5092 22.8166 32.4541 23.2144C32.4541 23.2555 32.4197 23.2898 32.3853 23.2898C32.3509 23.2898 32.3233 23.2555 32.3164 23.2144C32.2614 22.8166 32.2338 22.3503 32.2338 21.8496C32.2338 21.349 32.2614 20.8827 32.3164 20.4849C32.3164 20.4437 32.3509 20.4094 32.3853 20.4094C32.4197 20.4094 32.4472 20.4437 32.4541 20.4849C32.5092 20.8827 32.5367 21.349 32.5367 21.8496ZM34.4915 20.4232C34.4915 20.9238 34.464 21.3901 34.4089 21.7879C34.4089 21.8291 34.3745 21.8633 34.3401 21.8633C34.3057 21.8633 34.2781 21.8291 34.2713 21.7879C34.2231 21.3901 34.1887 20.9238 34.1887 20.4232C34.1887 19.9225 34.2162 19.4562 34.2713 19.0584C34.2713 19.0173 34.3057 18.983 34.3401 18.983C34.3745 18.983 34.402 19.0173 34.4089 19.0584C34.4571 19.4562 34.4915 19.9225 34.4915 20.4232ZM15.6867 25.0386C15.6867 25.5392 15.728 26.0056 15.7969 26.4034C15.8037 26.4445 15.845 26.4788 15.8863 26.4788C15.9276 26.4788 15.9689 26.4445 15.9758 26.4034C16.0446 26.0056 16.0859 25.5392 16.0859 25.0386C16.0859 24.538 16.0446 24.0716 15.9758 23.6739C15.9689 23.6327 15.9276 23.5984 15.8863 23.5984C15.845 23.5984 15.8037 23.6327 15.7969 23.6739C15.728 24.0716 15.6867 24.538 15.6867 25.0386ZM13.2776 24.7986C13.2776 25.2992 13.312 25.7656 13.3809 26.1633C13.3877 26.2045 13.4222 26.2388 13.4703 26.2388C13.5185 26.2388 13.5529 26.2045 13.5598 26.1633C13.6218 25.7656 13.6631 25.2992 13.6631 24.7986C13.6631 24.2979 13.6287 23.8316 13.5598 23.4338C13.5529 23.3927 13.5185 23.3584 13.4703 23.3584C13.4222 23.3584 13.3877 23.3927 13.3809 23.4338C13.3189 23.8316 13.2776 24.2979 13.2776 24.7986ZM10.8892 24.3802C10.8892 24.8809 10.9236 25.3472 10.9855 25.745C10.9855 25.7861 11.0268 25.8204 11.0681 25.8204C11.1094 25.8204 11.1438 25.7861 11.1507 25.745C11.2127 25.3472 11.2471 24.8809 11.2471 24.3802C11.2471 23.8796 11.2127 23.4133 11.1507 23.0155C11.1507 22.9743 11.1094 22.9401 11.0681 22.9401C11.0268 22.9401 10.9924 22.9743 10.9855 23.0155C10.9236 23.4133 10.8892 23.8796 10.8892 24.3802ZM8.542 23.7699C8.542 24.2705 8.57642 24.7369 8.63836 25.1346C8.63836 25.1758 8.67966 25.2101 8.71408 25.2101C8.74849 25.2101 8.78979 25.1758 8.78979 25.1346C8.85174 24.7369 8.88616 24.2705 8.88616 23.7699C8.88616 23.2692 8.85174 22.8029 8.78979 22.4051C8.78979 22.364 8.74849 22.3297 8.71408 22.3297C8.67966 22.3297 8.63836 22.364 8.63836 22.4051C8.57642 22.8029 8.542 23.2692 8.542 23.7699ZM6.26367 22.9401C6.26367 23.4407 6.29809 23.907 6.35315 24.3048C6.35315 24.3459 6.38757 24.3802 6.42887 24.3802C6.47017 24.3802 6.4977 24.3459 6.50458 24.3048C6.55965 23.907 6.59406 23.4407 6.59406 22.9401C6.59406 22.4394 6.55965 21.9731 6.50458 21.5753C6.50458 21.5342 6.47017 21.4999 6.42887 21.4999C6.38757 21.4999 6.36004 21.5342 6.35315 21.5753C6.29809 21.9731 6.26367 22.4394 6.26367 22.9401ZM4.10236 21.8496C4.10236 22.3503 4.12989 22.8166 4.18496 23.2144C4.18496 23.2555 4.21937 23.2898 4.25379 23.2898C4.2882 23.2898 4.31574 23.2555 4.32262 23.2144C4.37769 22.8166 4.40522 22.3503 4.40522 21.8496C4.40522 21.349 4.37769 20.8827 4.32262 20.4849C4.32262 20.4437 4.2882 20.4094 4.25379 20.4094C4.21937 20.4094 4.18496 20.4437 4.18496 20.4849C4.12989 20.8827 4.10236 21.349 4.10236 21.8496ZM2.14754 20.4232C2.14754 20.9238 2.17507 21.3901 2.23014 21.7879C2.23014 21.8291 2.26455 21.8633 2.29897 21.8633C2.33339 21.8633 2.36092 21.8291 2.3678 21.7879C2.41598 21.3901 2.4504 20.9238 2.4504 20.4232C2.4504 19.9225 2.42287 19.4562 2.3678 19.0584C2.3678 19.0173 2.33339 18.983 2.29897 18.983C2.26455 18.983 2.23702 19.0173 2.23014 19.0584C2.18196 19.4562 2.14754 19.9225 2.14754 20.4232ZM18.1165 25.1209C18.1165 25.6215 18.1578 26.0879 18.2266 26.4856C18.2335 26.5268 18.2748 26.5611 18.323 26.5611C18.3712 26.5611 18.4125 26.5268 18.4193 26.4856C18.4882 26.0879 18.5295 25.6215 18.5295 25.1209C18.5295 24.6203 18.4882 24.1539 18.4193 23.7562C18.4125 23.715 18.3712 23.6807 18.323 23.6807C18.2748 23.6807 18.2335 23.715 18.2266 23.7562C18.1578 24.1539 18.1165 24.6203 18.1165 25.1209ZM0.605713 18.5715C0.605713 19.0721 0.633246 19.5385 0.681428 19.9362C0.681428 19.9774 0.715844 20.0117 0.743376 20.0117C0.770909 20.0117 0.798441 19.9774 0.805325 19.9362C0.853507 19.5385 0.881039 19.0721 0.881039 18.5715C0.881039 18.0709 0.853507 17.6045 0.805325 17.2068C0.805325 17.1656 0.770909 17.1313 0.743376 17.1313C0.715844 17.1313 0.688311 17.1656 0.681428 17.2068C0.633246 17.6045 0.605713 18.0709 0.605713 18.5715ZM36.0471 18.5715C36.0471 19.0721 36.0196 19.5385 35.9714 19.9362C35.9714 19.9774 35.937 20.0117 35.9095 20.0117C35.8819 20.0117 35.8544 19.9774 35.8475 19.9362C35.7993 19.5385 35.7718 19.0721 35.7718 18.5715C35.7718 18.0709 35.7993 17.6045 35.8475 17.2068C35.8475 17.1656 35.8819 17.1313 35.9095 17.1313C35.937 17.1313 35.9645 17.1656 35.9714 17.2068C36.0196 17.6045 36.0471 18.0709 36.0471 18.5715Z" fill="#663D1F"/>
<path fill-rule="evenodd" clip-rule="evenodd" d="M0.151428 14.1275C0.151428 19.2299 8.22538 23.3653 18.1784 23.3653C28.1315 23.3653 36.2054 19.2299 36.2054 14.1275C36.2054 9.02515 28.1384 4.88977 18.1784 4.88977C8.2185 4.88977 0.151428 9.02515 0.151428 14.1275Z" fill="#FFEE76"/>
<path fill-rule="evenodd" clip-rule="evenodd" d="M0 13.9012C0 18.9487 8.20473 23.0361 18.323 23.0361C28.4412 23.0361 36.646 18.9487 36.646 13.9012C36.646 8.8537 28.4412 4.76633 18.323 4.76633C8.20473 4.76633 0 8.8537 0 13.9012Z" fill="url(#paint5_linear_13_99)"/>
<path fill-rule="evenodd" clip-rule="evenodd" d="M1.7277 13.4691C1.61069 17.9748 8.94125 21.8153 18.1096 22.0554C27.2711 22.2954 34.8013 18.839 34.9183 14.3332C35.0353 9.82753 27.7048 5.98704 18.5364 5.74701C9.37489 5.50698 1.84471 8.96342 1.7277 13.4691Z" fill="#FFEE76"/>
<path fill-rule="evenodd" clip-rule="evenodd" d="M1.84467 13.9012C1.84467 18.4412 9.22342 22.1171 18.323 22.1171C27.4225 22.1171 34.8013 18.4412 34.8013 13.9012C34.8013 9.3612 27.4225 5.6853 18.323 5.6853C9.22342 5.6853 1.84467 9.3612 1.84467 13.9012Z" fill="url(#paint6_linear_13_99)"/>
<path fill-rule="evenodd" clip-rule="evenodd" d="M34.7737 14.4087C34.2506 10.1087 27.0852 6.70029 18.323 6.70029C9.56071 6.70029 2.40222 10.1087 1.8791 14.4087C1.85845 14.2441 1.85156 14.0727 1.85156 13.9012C1.85156 9.3612 9.23031 5.6853 18.3299 5.6853C27.4294 5.6853 34.8081 9.3612 34.8081 13.9012C34.8081 14.0727 34.7944 14.2372 34.7806 14.4087H34.7737Z" fill="url(#paint7_linear_13_99)"/>
<path style="mix-blend-mode:multiply" fill-rule="evenodd" clip-rule="evenodd" d="M1.94794 13.7572C1.94794 18.2423 9.24409 21.8771 18.2404 21.8771C27.2367 21.8771 34.5328 18.2423 34.5328 13.7572C34.5328 9.27205 27.2367 5.6373 18.2404 5.6373C9.24409 5.6373 1.94794 9.27205 1.94794 13.7572Z" fill="url(#paint8_linear_13_99)"/>
<path fill-rule="evenodd" clip-rule="evenodd" d="M2.34717 13.1399C2.34717 18.1669 10.5519 22.2405 20.6701 22.2405C30.7884 22.2405 38.9931 18.1669 38.9931 13.1399V9.16229H2.34717V13.1399Z" fill="url(#paint9_linear_13_99)"/>
<path style="mix-blend-mode:screen" opacity="0.5" fill-rule="evenodd" clip-rule="evenodd" d="M18.2886 18.1943C19.0732 18.2423 19.8648 18.2698 20.677 18.2698C22.3428 18.2698 23.9534 18.16 25.4884 17.9543V21.9251C23.9534 22.1308 23.272 22.2406 20.677 22.2406C18.0821 22.2406 13.8627 21.7468 11.075 20.8895V16.9187C13.2226 17.5771 15.673 18.0229 18.2886 18.1943Z" fill="url(#paint10_linear_13_99)"/>
<path style="mix-blend-mode:multiply" opacity="0.5" fill-rule="evenodd" clip-rule="evenodd" d="M33.1631 15.8215C36.7217 14.1687 38.9587 11.8232 39 9.21033V13.1331C39 15.7597 36.7561 18.1326 33.1631 19.7922V15.8146V15.8215Z" fill="url(#paint11_linear_13_99)"/>
<path style="mix-blend-mode:multiply" opacity="0.5" fill-rule="evenodd" clip-rule="evenodd" d="M6.11226 14.683V18.6607C3.75133 17.1313 2.34717 15.2111 2.34717 13.1331V9.15546C2.36093 11.2334 3.75822 13.1468 6.11226 14.6762V14.683Z" fill="url(#paint12_linear_13_99)"/>
<path style="mix-blend-mode:screen" fill-rule="evenodd" clip-rule="evenodd" d="M18.2885 18.1943C19.0732 18.2423 19.8648 18.2697 20.677 18.2697V22.2405C17.9031 22.2405 15.2737 21.9319 12.9197 21.3901V17.4193C14.5854 17.8102 16.3888 18.0777 18.2885 18.2012V18.1943Z" fill="url(#paint13_linear_13_99)"/>
<path opacity="0.65" fill-rule="evenodd" clip-rule="evenodd" d="M23.3064 20.2723C23.3064 20.7729 23.2651 21.2393 23.1963 21.637C23.1894 21.6782 23.1481 21.7125 23.1068 21.7125C23.0655 21.7125 23.0242 21.6782 23.0173 21.637C22.9485 21.2393 22.9072 20.7729 22.9072 20.2723C22.9072 19.7716 22.9485 19.3053 23.0173 18.9075C23.0242 18.8664 23.0655 18.8321 23.1068 18.8321C23.1481 18.8321 23.1894 18.8664 23.1963 18.9075C23.2651 19.3053 23.3064 19.7716 23.3064 20.2723ZM25.7155 20.0322C25.7155 20.5329 25.6811 20.9992 25.6122 21.397C25.6054 21.4381 25.571 21.4724 25.5228 21.4724C25.4746 21.4724 25.4402 21.4381 25.4333 21.397C25.3713 20.9992 25.33 20.5329 25.33 20.0322C25.33 19.5316 25.3645 19.0653 25.4333 18.6675C25.4402 18.6264 25.4746 18.5921 25.5228 18.5921C25.571 18.5921 25.6054 18.6264 25.6122 18.6675C25.6742 19.0653 25.7155 19.5316 25.7155 20.0322ZM28.104 19.6139C28.104 20.1145 28.0695 20.5809 28.0076 20.9787C28.0007 21.0198 27.9663 21.0541 27.925 21.0541C27.8837 21.0541 27.8493 21.0198 27.8424 20.9787C27.7804 20.5809 27.746 20.1145 27.746 19.6139C27.746 19.1133 27.7804 18.6469 27.8424 18.2492C27.8424 18.208 27.8837 18.1737 27.925 18.1737C27.9663 18.1737 28.0007 18.208 28.0076 18.2492C28.0695 18.6469 28.104 19.1133 28.104 19.6139ZM30.4511 19.0035C30.4511 19.5042 30.4167 19.9705 30.3547 20.3683C30.3547 20.4094 30.3135 20.4437 30.279 20.4437C30.2446 20.4437 30.2033 20.4094 30.2033 20.3683C30.1414 19.9705 30.107 19.5042 30.107 19.0035C30.107 18.5029 30.1414 18.0366 30.2033 17.6388C30.2033 17.5977 30.2446 17.5634 30.279 17.5634C30.3135 17.5634 30.3547 17.5977 30.3547 17.6388C30.4167 18.0366 30.4511 18.5029 30.4511 19.0035ZM32.7294 18.1737C32.7294 18.6744 32.695 19.1407 32.64 19.5385C32.64 19.5796 32.6055 19.6139 32.5642 19.6139C32.5229 19.6139 32.4954 19.5796 32.4885 19.5385C32.4335 19.1407 32.399 18.6744 32.399 18.1737C32.399 17.6731 32.4335 17.2067 32.4885 16.809C32.4885 16.7678 32.5229 16.7335 32.5642 16.7335C32.6055 16.7335 32.6331 16.7678 32.64 16.809C32.695 17.2067 32.7294 17.6731 32.7294 18.1737ZM34.8908 17.0833C34.8908 17.5839 34.8632 18.0503 34.8082 18.448C34.8082 18.4892 34.7737 18.5235 34.7393 18.5235C34.7049 18.5235 34.6774 18.4892 34.6705 18.448C34.6154 18.0503 34.5879 17.5839 34.5879 17.0833C34.5879 16.5827 34.6154 16.1163 34.6705 15.7186C34.6705 15.6774 34.7049 15.6431 34.7393 15.6431C34.7737 15.6431 34.8082 15.6774 34.8082 15.7186C34.8632 16.1163 34.8908 16.5827 34.8908 17.0833ZM36.8456 15.6568C36.8456 16.1575 36.818 16.6238 36.763 17.0216C36.763 17.0627 36.7286 17.097 36.6941 17.097C36.6597 17.097 36.6322 17.0627 36.6253 17.0216C36.5771 16.6238 36.5427 16.1575 36.5427 15.6568C36.5427 15.1562 36.5702 14.6899 36.6253 14.2921C36.6253 14.2509 36.6597 14.2167 36.6941 14.2167C36.7286 14.2167 36.7561 14.2509 36.763 14.2921C36.8112 14.6899 36.8456 15.1562 36.8456 15.6568ZM18.0408 20.2723C18.0408 20.7729 18.0821 21.2393 18.1509 21.637C18.1578 21.6782 18.1991 21.7125 18.2404 21.7125C18.2817 21.7125 18.323 21.6782 18.3299 21.637C18.3987 21.2393 18.44 20.7729 18.44 20.2723C18.44 19.7716 18.3987 19.3053 18.3299 18.9075C18.323 18.8664 18.2817 18.8321 18.2404 18.8321C18.1991 18.8321 18.1578 18.8664 18.1509 18.9075C18.0821 19.3053 18.0408 19.7716 18.0408 20.2723ZM15.6317 20.0322C15.6317 20.5329 15.6661 20.9992 15.7349 21.397C15.7418 21.4381 15.7762 21.4724 15.8244 21.4724C15.8726 21.4724 15.907 21.4381 15.9139 21.397C15.9758 20.9992 16.0171 20.5329 16.0171 20.0322C16.0171 19.5316 15.9827 19.0653 15.9139 18.6675C15.907 18.6264 15.8726 18.5921 15.8244 18.5921C15.7762 18.5921 15.7418 18.6264 15.7349 18.6675C15.673 19.0653 15.6317 19.5316 15.6317 20.0322ZM13.2432 19.6139C13.2432 20.1145 13.2776 20.5809 13.3396 20.9787C13.3396 21.0198 13.3809 21.0541 13.4222 21.0541C13.4635 21.0541 13.4979 21.0198 13.5048 20.9787C13.5667 20.5809 13.6011 20.1145 13.6011 19.6139C13.6011 19.1133 13.5667 18.6469 13.5048 18.2492C13.4979 18.208 13.4635 18.1737 13.4222 18.1737C13.3809 18.1737 13.3465 18.208 13.3396 18.2492C13.2776 18.6469 13.2432 19.1133 13.2432 19.6139ZM10.896 19.0035C10.896 19.5042 10.9305 19.9705 10.9924 20.3683C10.9924 20.4094 11.0337 20.4437 11.0681 20.4437C11.1025 20.4437 11.1438 20.4094 11.1438 20.3683C11.2058 19.9705 11.2402 19.5042 11.2402 19.0035C11.2402 18.5029 11.2058 18.0366 11.1438 17.6388C11.1438 17.5977 11.1025 17.5634 11.0681 17.5634C11.0337 17.5634 10.9924 17.5977 10.9924 17.6388C10.9305 18.0366 10.896 18.5029 10.896 19.0035ZM8.61772 18.1737C8.61772 18.6744 8.65214 19.1407 8.7072 19.5385C8.7072 19.5796 8.74162 19.6139 8.78292 19.6139C8.82422 19.6139 8.85175 19.5796 8.85863 19.5385C8.9137 19.1407 8.94812 18.6744 8.94812 18.1737C8.94812 17.6731 8.9137 17.2067 8.85863 16.809C8.85863 16.7678 8.82422 16.7335 8.78292 16.7335C8.74162 16.7335 8.71409 16.7678 8.7072 16.809C8.65214 17.2067 8.61772 17.6731 8.61772 18.1737ZM6.45641 17.0833C6.45641 17.5839 6.48394 18.0503 6.53901 18.448C6.53901 18.4892 6.57342 18.5235 6.60784 18.5235C6.64226 18.5235 6.67667 18.4892 6.67667 18.448C6.73174 18.0503 6.75927 17.5839 6.75927 17.0833C6.75927 16.5827 6.73174 16.1163 6.67667 15.7186C6.67667 15.6774 6.64226 15.6431 6.60784 15.6431C6.57342 15.6431 6.53901 15.6774 6.53901 15.7186C6.48394 16.1163 6.45641 16.5827 6.45641 17.0833ZM4.50159 15.6568C4.50159 16.1575 4.52912 16.6238 4.58419 17.0216C4.58419 17.0627 4.61861 17.097 4.65302 17.097C4.68744 17.097 4.71497 17.0627 4.72185 17.0216C4.77004 16.6238 4.80445 16.1575 4.80445 15.6568C4.80445 15.1562 4.77692 14.6899 4.72185 14.2921C4.72185 14.2509 4.68744 14.2167 4.65302 14.2167C4.61861 14.2167 4.59107 14.2509 4.58419 14.2921C4.53601 14.6899 4.50159 15.1562 4.50159 15.6568ZM20.4705 20.3546C20.4705 20.8552 20.5118 21.3216 20.5807 21.7193C20.5875 21.7605 20.6288 21.7948 20.677 21.7948C20.7252 21.7948 20.7665 21.7605 20.7734 21.7193C20.8422 21.3216 20.8835 20.8552 20.8835 20.3546C20.8835 19.8539 20.8422 19.3876 20.7734 18.9898C20.7665 18.9487 20.7252 18.9144 20.677 18.9144C20.6288 18.9144 20.5875 18.9487 20.5807 18.9898C20.5118 19.3876 20.4705 19.8539 20.4705 20.3546ZM2.95288 13.8052C2.95288 14.3058 2.98041 14.7722 3.0286 15.1699C3.0286 15.2111 3.06301 15.2454 3.09054 15.2454C3.11808 15.2454 3.14561 15.2111 3.15249 15.1699C3.20067 14.7722 3.22821 14.3058 3.22821 13.8052C3.22821 13.3045 3.20067 12.8382 3.15249 12.4404C3.15249 12.3993 3.11808 12.365 3.09054 12.365C3.06301 12.365 3.03548 12.3993 3.0286 12.4404C2.98041 12.8382 2.95288 13.3045 2.95288 13.8052ZM38.3943 13.8052C38.3943 14.3058 38.3667 14.7722 38.3186 15.1699C38.3186 15.2111 38.2842 15.2454 38.2566 15.2454C38.2291 15.2454 38.2016 15.2111 38.1947 15.1699C38.1465 14.7722 38.119 14.3058 38.119 13.8052C38.119 13.3045 38.1465 12.8382 38.1947 12.4404C38.1947 12.3993 38.2291 12.365 38.2566 12.365C38.2842 12.365 38.3117 12.3993 38.3186 12.4404C38.3667 12.8382 38.3943 13.3045 38.3943 13.8052Z" fill="#663D1F"/>
<path fill-rule="evenodd" clip-rule="evenodd" d="M2.4986 9.3612C2.4986 14.4636 10.5725 18.5989 20.5256 18.5989C30.4787 18.5989 38.5526 14.4636 38.5526 9.3612C38.5526 4.25883 30.4924 0.13031 20.5325 0.13031C10.5725 0.13031 2.4986 4.26569 2.4986 9.3612Z" fill="#FFEE76"/>
<path fill-rule="evenodd" clip-rule="evenodd" d="M2.34717 9.13487C2.34717 14.1824 10.5519 18.2697 20.6701 18.2697C30.7884 18.2697 38.9931 14.1824 38.9931 9.13487C38.9931 4.08738 30.7953 0 20.677 0C10.5588 0 2.34717 4.08738 2.34717 9.13487Z" fill="url(#paint14_linear_13_99)"/>
<path fill-rule="evenodd" clip-rule="evenodd" d="M4.0817 8.70281C3.96469 13.2085 11.2953 17.049 20.4636 17.289C29.6251 17.5291 37.1553 14.0726 37.2723 9.56692C37.3893 5.0612 30.0588 1.22072 20.8904 0.980685C11.722 0.740654 4.19872 4.19709 4.0817 8.70281Z" fill="#FFEE76"/>
<path fill-rule="evenodd" clip-rule="evenodd" d="M4.19873 9.13488C4.19873 13.6749 11.5775 17.3508 20.677 17.3508C29.7766 17.3508 37.1553 13.6749 37.1553 9.13488C37.1553 4.59487 29.7766 0.918976 20.677 0.918976C11.5775 0.918976 4.19873 4.59487 4.19873 9.13488Z" fill="url(#paint15_linear_13_99)"/>
<path fill-rule="evenodd" clip-rule="evenodd" d="M37.1209 9.64237C36.5978 5.34239 29.4324 1.93396 20.6701 1.93396C11.9079 1.93396 4.74938 5.34239 4.22626 9.64237C4.20561 9.47778 4.19873 9.30633 4.19873 9.13488C4.19873 4.59487 11.5706 0.918976 20.677 0.918976C29.7834 0.918976 37.1553 4.59487 37.1553 9.13488C37.1553 9.30633 37.1415 9.47092 37.1278 9.64237H37.1209Z" fill="url(#paint16_linear_13_99)"/>
<path style="mix-blend-mode:screen" fill-rule="evenodd" clip-rule="evenodd" d="M20.677 1.93396C12.2451 1.93396 5.29315 5.08865 4.31574 9.16231C4.27444 9.32004 4.24691 9.48463 4.22626 9.64237C4.25379 9.88926 4.30886 10.1361 4.38457 10.3762C4.57042 10.9934 4.89392 11.5832 5.34133 12.1455L5.48588 12.125L25.9289 9.16231L36.3775 7.64669C34.2506 4.33426 28.0282 1.93396 20.677 1.93396Z" fill="url(#paint17_linear_13_99)"/>
<path style="mix-blend-mode:screen" fill-rule="evenodd" clip-rule="evenodd" d="M4.08172 8.70282C4.18497 4.69088 10.1596 1.51562 17.9375 1.03556C18.8255 0.960122 19.7409 0.925832 20.677 0.925832C28.9299 0.925832 35.7649 3.95022 36.9695 7.90043C37.0108 8.01016 37.0521 8.11989 37.0865 8.22962L38.8555 7.97587C37.6991 3.47701 30.0037 0 20.677 0C10.5519 0 2.34717 4.08738 2.34717 9.13487C2.34717 9.14173 2.34717 9.14859 2.34717 9.16231C2.35405 10.5408 2.97354 11.8438 4.07484 13.0097L5.87135 12.749C5.67862 12.5502 5.49966 12.3513 5.33446 12.1455C4.89394 11.5832 4.57043 10.9934 4.3777 10.3762C4.21939 9.97841 4.12302 9.57379 4.08861 9.16231C4.07484 9.01143 4.06796 8.86055 4.07484 8.70282H4.08172Z" fill="url(#paint18_linear_13_99)"/>
</g>
<defs>
<linearGradient id="paint0_linear_13_99" x1="0" y1="20.4643" x2="36.646" y2="20.4643" gradientUnits="userSpaceOnUse">
<stop stop-color="#B38746"/>
<stop offset="0.39" stop-color="#D9973B"/>
<stop offset="0.75" stop-color="#AD6C10"/>
<stop offset="0.86" stop-color="#D3953D"/>
<stop offset="1" stop-color="#B07F35"/>
</linearGradient>
<linearGradient id="paint1_linear_13_99" x1="8.72095" y1="24.3391" x2="23.1343" y2="24.3391" gradientUnits="userSpaceOnUse">
<stop stop-color="#FFEE76"/>
<stop offset="1" stop-color="#1D1D1B"/>
</linearGradient>
<linearGradient id="paint2_linear_13_99" x1="30.809" y1="19.271" x2="36.6459" y2="19.271" gradientUnits="userSpaceOnUse">
<stop stop-color="white"/>
<stop offset="1" stop-color="#663D1F"/>
</linearGradient>
<linearGradient id="paint3_linear_13_99" x1="0" y1="18.6744" x2="3.76509" y2="18.6744" gradientUnits="userSpaceOnUse">
<stop stop-color="#663D1F"/>
<stop offset="1" stop-color="white"/>
</linearGradient>
<linearGradient id="paint4_linear_13_99" x1="10.5657" y1="24.5929" x2="18.323" y2="24.5929" gradientUnits="userSpaceOnUse">
<stop stop-color="#FFEE76"/>
<stop offset="1" stop-color="#1D1D1B"/>
</linearGradient>
<linearGradient id="paint5_linear_13_99" x1="0" y1="13.9012" x2="36.646" y2="13.9012" gradientUnits="userSpaceOnUse">
<stop stop-color="#FFE878"/>
<stop offset="1" stop-color="#E6A729"/>
</linearGradient>
<linearGradient id="paint6_linear_13_99" x1="1.84467" y1="13.9012" x2="34.8013" y2="13.9012" gradientUnits="userSpaceOnUse">
<stop stop-color="#F0CC62"/>
<stop offset="1" stop-color="#ED9E1F"/>
</linearGradient>
<linearGradient id="paint7_linear_13_99" x1="1.84468" y1="10.047" x2="34.8013" y2="10.047" gradientUnits="userSpaceOnUse">
<stop stop-color="#B38746"/>
<stop offset="0.39" stop-color="#D9973B"/>
<stop offset="0.75" stop-color="#AD6C10"/>
<stop offset="0.86" stop-color="#D3953D"/>
<stop offset="1" stop-color="#B07F35"/>
</linearGradient>
<linearGradient id="paint8_linear_13_99" x1="1.94794" y1="13.7572" x2="34.5328" y2="13.7572" gradientUnits="userSpaceOnUse">
<stop stop-color="#E0C0A8"/>
<stop offset="1" stop-color="#663D1F"/>
</linearGradient>
<linearGradient id="paint9_linear_13_99" x1="2.34717" y1="15.698" x2="39" y2="15.698" gradientUnits="userSpaceOnUse">
<stop stop-color="#B38746"/>
<stop offset="0.39" stop-color="#D9973B"/>
<stop offset="0.75" stop-color="#AD6C10"/>
<stop offset="0.86" stop-color="#D3953D"/>
<stop offset="1" stop-color="#B07F35"/>
</linearGradient>
<linearGradient id="paint10_linear_13_99" x1="11.0681" y1="19.5796" x2="25.4815" y2="19.5796" gradientUnits="userSpaceOnUse">
<stop stop-color="#FFEE76"/>
<stop offset="1" stop-color="#1D1D1B"/>
</linearGradient>
<linearGradient id="paint11_linear_13_99" x1="33.1631" y1="14.5047" x2="39" y2="14.5047" gradientUnits="userSpaceOnUse">
<stop stop-color="white"/>
<stop offset="1" stop-color="#663D1F"/>
</linearGradient>
<linearGradient id="paint12_linear_13_99" x1="2.34717" y1="13.9081" x2="6.11226" y2="13.9081" gradientUnits="userSpaceOnUse">
<stop stop-color="#663D1F"/>
<stop offset="1" stop-color="white"/>
</linearGradient>
<linearGradient id="paint13_linear_13_99" x1="12.9197" y1="19.8265" x2="20.677" y2="19.8265" gradientUnits="userSpaceOnUse">
<stop stop-color="#FFEE76"/>
<stop offset="1" stop-color="#1D1D1B"/>
</linearGradient>
<linearGradient id="paint14_linear_13_99" x1="2.34717" y1="9.13487" x2="39" y2="9.13487" gradientUnits="userSpaceOnUse">
<stop stop-color="#FFE878"/>
<stop offset="1" stop-color="#E6A729"/>
</linearGradient>
<linearGradient id="paint15_linear_13_99" x1="4.19873" y1="9.13488" x2="37.1553" y2="9.13488" gradientUnits="userSpaceOnUse">
<stop stop-color="#F0CC62"/>
<stop offset="1" stop-color="#ED9E1F"/>
</linearGradient>
<linearGradient id="paint16_linear_13_99" x1="4.19873" y1="5.28067" x2="37.1553" y2="5.28067" gradientUnits="userSpaceOnUse">
<stop stop-color="#B38746"/>
<stop offset="0.39" stop-color="#D9973B"/>
<stop offset="0.75" stop-color="#AD6C10"/>
<stop offset="0.86" stop-color="#D3953D"/>
<stop offset="1" stop-color="#B07F35"/>
</linearGradient>
<linearGradient id="paint17_linear_13_99" x1="4.22626" y1="7.03632" x2="36.3706" y2="7.03632" gradientUnits="userSpaceOnUse">
<stop stop-color="#FFEE76"/>
<stop offset="1" stop-color="#1D1D1B"/>
</linearGradient>
<linearGradient id="paint18_linear_13_99" x1="2.34717" y1="6.5014" x2="38.8486" y2="6.5014" gradientUnits="userSpaceOnUse">
<stop stop-color="#FFEE76"/>
<stop offset="1" stop-color="#1D1D1B"/>
</linearGradient>
<clipPath id="clip0_13_99">
<rect width="39" height="27" fill="white"/>
</clipPath>
</defs>
</svg>
