<svg width="48" height="50" viewBox="0 0 48 50" fill="none" xmlns="http://www.w3.org/2000/svg">
<path d="M25.3488 1.1558L31.4972 13.7123L45.2446 15.7253C46.9295 15.9728 47.6046 18.0589 46.3828 19.2567L36.4349 29.0297L38.7838 42.8289C39.0739 44.5214 37.3108 45.8091 35.8044 45.0106L23.5077 38.4934L11.2109 45.0106C9.70447 45.8091 7.94141 44.5214 8.23153 42.8289L10.5804 29.0297L0.632531 19.2567C-0.589335 18.0589 0.0857603 15.9728 1.77071 15.7253L15.5181 13.7123L21.6665 1.1558C22.4197 -0.384941 24.5956 -0.384941 25.3488 1.1558Z" fill="url(#paint0_linear_13_85)"/>
<path d="M36.7585 43.6386C36.6859 43.6386 36.619 43.6217 36.5465 43.5824L23.5076 36.6715L10.4688 43.5824C10.3963 43.6217 10.3238 43.6386 10.2568 43.6386C10.1285 43.6386 9.989 43.5711 9.89973 43.4643C9.81046 43.3574 9.78256 43.2393 9.80488 43.0988L12.2932 28.4674L1.74838 18.1039C1.581 17.9409 1.59216 17.7553 1.63121 17.6316C1.67027 17.5079 1.77069 17.3504 1.99944 17.3167L16.5781 15.1799L23.0948 1.86993C23.2008 1.65625 23.3737 1.61127 23.5076 1.61127C23.6415 1.61127 23.8145 1.65625 23.9205 1.86993L30.4371 15.1799L45.0158 17.3167C45.2502 17.3504 45.345 17.5079 45.3841 17.6316C45.4231 17.7553 45.4343 17.9409 45.2669 18.1039L34.7164 28.4674L37.2048 43.0988C37.2271 43.245 37.1992 43.363 37.11 43.4643C37.0207 43.5711 36.8812 43.6386 36.7529 43.6386H36.7585Z" fill="url(#paint1_linear_13_85)"/>
<path d="M10.5804 29.0297L0.632504 19.2567C0.147105 18.7787 -0.0314329 18.1602 0.0243601 17.5753C0.0187808 17.5753 0.00762217 17.5753 0.00762217 17.5753C-0.00911572 17.5866 0.00762217 21.326 0.00762217 21.326C0.00762217 21.326 0.0187808 21.326 0.0243601 21.326C-0.0314329 21.9108 0.147105 22.5237 0.632504 23.0017L10.0336 32.2349L10.5804 29.0184V29.0297Z" fill="url(#paint2_linear_13_85)"/>
<path d="M38.8005 43.3968C38.661 44.7857 37.1323 45.7135 35.8044 45.0106L23.5076 38.4934L11.2109 45.0106C9.89414 45.7079 8.38215 44.8082 8.21477 43.4418V46.7482C8.06413 48.3564 9.75466 49.5372 11.2109 48.7613L23.2175 42.3959L23.5746 42.2834L35.7988 48.7613C37.255 49.5316 38.94 48.3564 38.7949 46.7482V43.3968H38.8005Z" fill="url(#paint3_linear_13_85)"/>
<path d="M46.9853 17.5753C47.0467 18.1602 46.8625 18.7787 46.3771 19.2567L36.4293 29.0297L36.976 32.2461L46.3771 23.0129C46.857 22.5406 47.0411 21.9277 46.9853 21.3485L46.9965 21.3372V17.5866H46.9797L46.9853 17.5753Z" fill="url(#paint4_linear_13_85)"/>
<path style="mix-blend-mode:screen" d="M45.3841 17.6316C45.345 17.5079 45.2446 17.3504 45.0158 17.3167L30.4371 15.1799L23.9149 1.86993C23.8089 1.65625 23.636 1.61127 23.5021 1.61127C23.3682 1.61127 23.1952 1.65625 23.0892 1.86993L16.5726 15.1799L1.99944 17.3167C1.76511 17.3504 1.67027 17.5079 1.63121 17.6316C1.59216 17.7553 1.581 17.9408 1.74838 18.1039L5.19638 21.489C10.8705 18.8012 18.4695 18.3795 26.0462 20.8818C30.0912 22.2201 33.6564 24.2331 36.552 26.668L45.2669 18.1039C45.4343 17.9408 45.4231 17.7553 45.3841 17.6316Z" fill="url(#paint5_radial_13_85)"/>
<path d="M45.2669 18.1039C45.4343 17.9409 45.4231 17.7553 45.3841 17.6316C45.345 17.5079 45.2446 17.3504 45.0158 17.3167L30.4371 15.1799L23.9149 1.86993C23.8089 1.65625 23.636 1.61127 23.5021 1.61127C23.3682 1.61127 23.1952 1.65625 23.0892 1.86993L16.5726 15.1799L1.99944 17.3167C1.76511 17.3504 1.67027 17.5079 1.63121 17.6316C1.59216 17.7553 1.581 17.9409 1.74838 18.1039L12.2988 28.4674L9.81046 43.0988C9.78814 43.245 9.81604 43.363 9.90531 43.4643C9.99458 43.5711 10.1341 43.6386 10.2624 43.6386C10.3349 43.6386 10.4019 43.6217 10.4744 43.5824L23.5132 36.6715L36.552 43.5824C36.6246 43.6217 36.6971 43.6386 36.764 43.6386C36.8924 43.6386 37.0319 43.5711 37.1211 43.4643C37.2104 43.3574 37.2383 43.2393 37.216 43.0988L34.7276 28.4674L45.2781 18.1039H45.2669ZM36.8087 43.2056C36.8087 43.2056 36.764 43.2393 36.7585 43.2393L23.5076 36.2217L10.2568 43.2393C10.2568 43.2393 10.2233 43.2281 10.201 43.1662L12.7284 28.3268L2.02176 17.8171C2.02176 17.8171 1.99387 17.789 2.00502 17.7553C2.01618 17.7215 2.02176 17.7215 2.05524 17.7159L16.8404 15.551L23.4518 2.04425C23.4686 2.01613 23.4686 2.01051 23.5021 2.01051C23.5355 2.01051 23.5411 2.01051 23.5523 2.04425L30.1637 15.5454L44.9489 17.7103C44.9823 17.7103 44.9824 17.7103 44.9991 17.7497C45.0103 17.7834 45.0047 17.789 44.9824 17.8115L34.2868 28.3212L36.8087 43.2V43.2056Z" fill="url(#paint6_linear_13_85)"/>
<defs>
<linearGradient id="paint0_linear_13_85" x1="20.4669" y1="1.89243" x2="29.0198" y2="45.9304" gradientUnits="userSpaceOnUse">
<stop stop-color="#FDD733"/>
<stop offset="1" stop-color="#F9AB21"/>
</linearGradient>
<linearGradient id="paint1_linear_13_85" x1="22.3416" y1="5.66555" x2="25.8491" y2="41.5809" gradientUnits="userSpaceOnUse">
<stop stop-color="#FDE265"/>
<stop offset="1" stop-color="#FDD733"/>
</linearGradient>
<linearGradient id="paint2_linear_13_85" x1="5.35817" y1="13.4311" x2="5.15415" y2="44.0603" gradientUnits="userSpaceOnUse">
<stop stop-color="#EA8D07"/>
<stop offset="1" stop-color="#B26500"/>
</linearGradient>
<linearGradient id="paint3_linear_13_85" x1="23.7141" y1="13.5548" x2="23.5157" y2="44.184" gradientUnits="userSpaceOnUse">
<stop stop-color="#EA8D07"/>
<stop offset="1" stop-color="#B26500"/>
</linearGradient>
<linearGradient id="paint4_linear_13_85" x1="41.791" y1="13.6729" x2="41.5869" y2="44.3021" gradientUnits="userSpaceOnUse">
<stop stop-color="#EA8D07"/>
<stop offset="1" stop-color="#B26500"/>
</linearGradient>
<radialGradient id="paint5_radial_13_85" cx="0" cy="0" r="1" gradientUnits="userSpaceOnUse" gradientTransform="translate(26.5419 32.2436) scale(24.9699 25.1661)">
<stop stop-color="#FCED97"/>
<stop offset="1"/>
</radialGradient>
<linearGradient id="paint6_linear_13_85" x1="23.2566" y1="2.44349" x2="23.931" y2="43.599" gradientUnits="userSpaceOnUse">
<stop stop-color="#FDD733"/>
<stop offset="1" stop-color="#FBC12A"/>
</linearGradient>
</defs>
</svg>
